<?xml version="1.0" encoding="UTF-8"?>
<svg width="270px" height="226px" viewBox="0 0 270 226" version="1.1" xmlns="http://www.w3.org/2000/svg" xmlns:xlink="http://www.w3.org/1999/xlink">
    <!-- Generator: Sketch 40.3 (33839) - http://www.bohemiancoding.com/sketch -->
    <title>header</title>
    <desc>Created with Sketch.</desc>
    <defs>
        <path d="M0,14.9989649 C0,6.7152653 6.70783627,1.42108547e-14 14.9978046,1.42108547e-14 L255.002195,1.42108547e-14 C263.285254,1.42108547e-14 270,6.7120166 270,14.9989649 L270,169.001035 C270,177.284735 263.285858,184 255.004001,184 L234.038968,184 C225.756906,184 215.368421,189.626402 210.845167,196.552329 L194.795458,221.127358 C190.267937,228.059818 187.5564,227.031213 188.737407,218.841436 L191.621968,198.838251 C192.80372,190.643311 187.04982,184 178.758986,184 L15.0027325,184 C6.71695213,184 0,177.287983 0,169.001035 L0,14.9989649 Z M95.324,77 L84.188,50.6 L84.092,50.6 L79.436,77 L73.532,77 L79.532,43.016 L87.212,43.016 L98.156,68.6 L98.252,68.6 L102.764,43.016 L108.668,43.016 L102.668,77 L95.324,77 Z M115.876,67.256 C115.844,67.4160008 115.828,67.591999 115.828,67.784 C115.828,68.5520038 115.979998,69.2559968 116.284,69.896 C116.588002,70.5360032 117.011997,71.0879977 117.556,71.552 C118.100003,72.0160023 118.739996,72.3839986 119.476,72.656 C120.212004,72.9280014 121.011996,73.064 121.876,73.064 C123.348007,73.064 124.603995,72.7920027 125.644,72.248 C126.684005,71.7039973 127.619996,70.9680046 128.452,70.04 L131.668,73.064 C128.819986,76.1360154 125.34802,77.672 121.252,77.672 C119.683992,77.672 118.244007,77.4400023 116.932,76.976 C115.619993,76.5119977 114.484005,75.8480043 113.524,74.984 C112.563995,74.1199957 111.812003,73.0560063 111.268,71.792 C110.723997,70.5279937 110.452,69.0800082 110.452,67.448 C110.452,65.4639901 110.787997,63.6160086 111.46,61.904 C112.132003,60.1919914 113.067994,58.6960064 114.268,57.416 C115.468006,56.1359936 116.891992,55.1360036 118.54,54.416 C120.188008,53.6959964 121.98799,53.336 123.94,53.336 C125.316007,53.336 126.587994,53.5279981 127.756,53.912 C128.924006,54.2960019 129.939996,54.8719962 130.804,55.64 C131.668004,56.4080038 132.339998,57.3679942 132.82,58.52 C133.300002,59.6720058 133.54,61.0159923 133.54,62.552 C133.54,63.0640026 133.492,63.7759954 133.396,64.688 C133.3,65.6000046 133.156001,66.455996 132.964,67.256 L115.876,67.256 Z M147.18,77 L141.132,77 L136.62,53.96 L142.524,53.96 L145.212,70.856 L145.308,70.856 L154.908,53.96 L160.86,53.96 L147.18,77 Z M165.044,67.256 C165.012,67.4160008 164.996,67.591999 164.996,67.784 C164.996,68.5520038 165.147998,69.2559968 165.452,69.896 C165.756002,70.5360032 166.179997,71.0879977 166.724,71.552 C167.268003,72.0160023 167.907996,72.3839986 168.644,72.656 C169.380004,72.9280014 170.179996,73.064 171.044,73.064 C172.516007,73.064 173.771995,72.7920027 174.812,72.248 C175.852005,71.7039973 176.787996,70.9680046 177.62,70.04 L180.836,73.064 C177.987986,76.1360154 174.51602,77.672 170.42,77.672 C168.851992,77.672 167.412007,77.4400023 166.1,76.976 C164.787993,76.5119977 163.652005,75.8480043 162.692,74.984 C161.731995,74.1199957 160.980003,73.0560063 160.436,71.792 C159.891997,70.5279937 159.62,69.0800082 159.62,67.448 C159.62,65.4639901 159.955997,63.6160086 160.628,61.904 C161.300003,60.1919914 162.235994,58.6960064 163.436,57.416 C164.636006,56.1359936 166.059992,55.1360036 167.708,54.416 C169.356008,53.6959964 171.15599,53.336 173.108,53.336 C174.484007,53.336 175.755994,53.5279981 176.924,53.912 C178.092006,54.2960019 179.107996,54.8719962 179.972,55.64 C180.836004,56.4080038 181.507998,57.3679942 181.988,58.52 C182.468002,59.6720058 182.708,61.0159923 182.708,62.552 C182.708,63.0640026 182.66,63.7759954 182.564,64.688 C182.468,65.6000046 182.324001,66.455996 182.132,67.256 L165.044,67.256 Z M194.14,57.8 C194.940004,56.4559933 195.883995,55.3760041 196.972,54.56 C198.060005,53.7439959 199.371992,53.336 200.908,53.336 C201.132001,53.336 201.371999,53.3439999 201.628,53.36 C201.884001,53.3760001 202.107999,53.4159997 202.3,53.48 L201.532,58.712 C201.179998,58.6159995 200.868001,58.5520002 200.596,58.52 C200.323999,58.4879998 200.060001,58.472 199.804,58.472 C198.491993,58.472 197.420004,58.7119976 196.588,59.192 C195.755996,59.6720024 195.084003,60.2479966 194.572,60.92 C194.059997,61.5920034 193.692001,62.2799965 193.468,62.984 C193.243999,63.6880035 193.1,64.2479979 193.036,64.664 L190.876,77 L185.26,77 L188.476,58.904 C188.604001,58.295997 188.739999,57.5120048 188.884,56.552 C189.028001,55.5919952 189.132,54.7280038 189.196,53.96 L194.476,53.96 C194.476,54.1200008 194.46,54.3599984 194.428,54.68 C194.396,55.0000016 194.356,55.3519981 194.308,55.736 C194.26,56.1200019 194.212,56.4959982 194.164,56.864 C194.116,57.2320018 194.076,57.5439987 194.044,57.8 L194.14,57.8 Z M41.948,131 L44.588,115.88 L29.036,115.88 L26.348,131 L20.444,131 L26.444,97.016 L32.348,97.016 L29.9,110.792 L45.5,110.792 L47.948,97.016 L53.852,97.016 L47.852,131 L41.948,131 Z M70.372,116.408 C70.4360003,116.023998 70.4759999,115.728001 70.492,115.52 C70.5080001,115.311999 70.516,115.112001 70.516,114.92 C70.516,113.799994 70.1560036,113.000002 69.436,112.52 C68.7159964,112.039998 67.652007,111.8 66.244,111.8 C65.1239944,111.8 63.964006,112.015998 62.764,112.448 C61.563994,112.880002 60.5000046,113.431997 59.572,114.104 L57.412,110.312 C58.7240066,109.383995 60.2199916,108.656003 61.9,108.128 C63.5800084,107.599997 65.2999912,107.336 67.06,107.336 C68.1480054,107.336 69.2279946,107.455999 70.3,107.696 C71.3720054,107.936001 72.3319958,108.327997 73.18,108.872 C74.0280042,109.416003 74.7079974,110.127996 75.22,111.008 C75.7320026,111.888004 75.988,112.983993 75.988,114.296 C75.988,114.584001 75.9720002,114.935998 75.94,115.352 C75.9079998,115.768002 75.8600003,116.135998 75.796,116.456 L74.116,125.816 C73.9559992,126.712004 73.8200006,127.639995 73.708,128.6 C73.5959994,129.560005 73.54,130.359997 73.54,131 L68.356,131 C68.356,130.135996 68.451999,129.224005 68.644,128.264 L68.548,128.264 C66.755991,130.408011 64.260016,131.48 61.06,131.48 C60.259996,131.48 59.4280043,131.384001 58.564,131.192 C57.6999957,130.999999 56.9160035,130.672002 56.212,130.208 C55.5079965,129.743998 54.9320022,129.120004 54.484,128.336 C54.0359978,127.551996 53.812,126.568006 53.812,125.384 C53.812,123.495991 54.315995,121.968006 55.324,120.8 C56.332005,119.631994 57.635992,118.720003 59.236,118.064 C60.836008,117.407997 62.6199902,116.968001 64.588,116.744 C66.5560098,116.519999 68.4839906,116.408 70.372,116.408 Z M90.06,131 L84.012,131 L79.5,107.96 L85.404,107.96 L88.092,124.856 L88.188,124.856 L97.788,107.96 L103.74,107.96 L90.06,131 Z M107.924,121.256 C107.892,121.416001 107.876,121.591999 107.876,121.784 C107.876,122.552004 108.027998,123.255997 108.332,123.896 C108.636002,124.536003 109.059997,125.087998 109.604,125.552 C110.148003,126.016002 110.787996,126.383999 111.524,126.656 C112.260004,126.928001 113.059996,127.064 113.924,127.064 C115.396007,127.064 116.651995,126.792003 117.692,126.248 C118.732005,125.703997 119.667996,124.968005 120.5,124.04 L123.716,127.064 C120.867986,130.136015 117.39602,131.672 113.3,131.672 C111.731992,131.672 110.292007,131.440002 108.98,130.976 C107.667993,130.511998 106.532005,129.848004 105.572,128.984 C104.611995,128.119996 103.860003,127.056006 103.316,125.792 C102.771997,124.527994 102.5,123.080008 102.5,121.448 C102.5,119.46399 102.835997,117.616009 103.508,115.904 C104.180003,114.191991 105.115994,112.696006 106.316,111.416 C107.516006,110.135994 108.939992,109.136004 110.588,108.416 C112.236008,107.695996 114.03599,107.336 115.988,107.336 C117.364007,107.336 118.635994,107.527998 119.804,107.912 C120.972006,108.296002 121.987996,108.871996 122.852,109.64 C123.716004,110.408004 124.387998,111.367994 124.868,112.52 C125.348002,113.672006 125.588,115.015992 125.588,116.552 C125.588,117.064003 125.54,117.775995 125.444,118.688 C125.348,119.600005 125.204001,120.455996 125.012,121.256 L107.924,121.256 Z M139.476,131 L145.476,97.016 L151.38,97.016 L145.38,131 L139.476,131 Z M168.964,121.256 C168.932,121.416001 168.916,121.591999 168.916,121.784 C168.916,122.552004 169.067998,123.255997 169.372,123.896 C169.676002,124.536003 170.099997,125.087998 170.644,125.552 C171.188003,126.016002 171.827996,126.383999 172.564,126.656 C173.300004,126.928001 174.099996,127.064 174.964,127.064 C176.436007,127.064 177.691995,126.792003 178.732,126.248 C179.772005,125.703997 180.707996,124.968005 181.54,124.04 L184.756,127.064 C181.907986,130.136015 178.43602,131.672 174.34,131.672 C172.771992,131.672 171.332007,131.440002 170.02,130.976 C168.707993,130.511998 167.572005,129.848004 166.612,128.984 C165.651995,128.119996 164.900003,127.056006 164.356,125.792 C163.811997,124.527994 163.54,123.080008 163.54,121.448 C163.54,119.46399 163.875997,117.616009 164.548,115.904 C165.220003,114.191991 166.155994,112.696006 167.356,111.416 C168.556006,110.135994 169.979992,109.136004 171.628,108.416 C173.276008,107.695996 175.07599,107.336 177.028,107.336 C178.404007,107.336 179.675994,107.527998 180.844,107.912 C182.012006,108.296002 183.027996,108.871996 183.892,109.64 C184.756004,110.408004 185.427998,111.367994 185.908,112.52 C186.388002,113.672006 186.628,115.015992 186.628,116.552 C186.628,117.064003 186.58,117.775995 186.484,118.688 C186.388,119.600005 186.244001,120.455996 186.052,121.256 L168.964,121.256 Z M200.268,131 L194.22,131 L189.708,107.96 L195.612,107.96 L198.3,124.856 L198.396,124.856 L207.996,107.96 L213.948,107.96 L200.268,131 Z M218.132,121.256 C218.1,121.416001 218.084,121.591999 218.084,121.784 C218.084,122.552004 218.235998,123.255997 218.54,123.896 C218.844002,124.536003 219.267997,125.087998 219.812,125.552 C220.356003,126.016002 220.995996,126.383999 221.732,126.656 C222.468004,126.928001 223.267996,127.064 224.132,127.064 C225.604007,127.064 226.859995,126.792003 227.9,126.248 C228.940005,125.703997 229.875996,124.968005 230.708,124.04 L233.924,127.064 C231.075986,130.136015 227.60402,131.672 223.508,131.672 C221.939992,131.672 220.500007,131.440002 219.188,130.976 C217.875993,130.511998 216.740005,129.848004 215.78,128.984 C214.819995,128.119996 214.068003,127.056006 213.524,125.792 C212.979997,124.527994 212.708,123.080008 212.708,121.448 C212.708,119.46399 213.043997,117.616009 213.716,115.904 C214.388003,114.191991 215.323994,112.696006 216.524,111.416 C217.724006,110.135994 219.147992,109.136004 220.796,108.416 C222.444008,107.695996 224.24399,107.336 226.196,107.336 C227.572007,107.336 228.843994,107.527998 230.012,107.912 C231.180006,108.296002 232.195996,108.871996 233.06,109.64 C233.924004,110.408004 234.595998,111.367994 235.076,112.52 C235.556002,113.672006 235.796,115.015992 235.796,116.552 C235.796,117.064003 235.748,117.775995 235.652,118.688 C235.556,119.600005 235.412001,120.455996 235.22,121.256 L218.132,121.256 Z M247.228,111.8 C248.028004,110.455993 248.971995,109.376004 250.06,108.56 C251.148005,107.743996 252.459992,107.336 253.996,107.336 C254.220001,107.336 254.459999,107.344 254.716,107.36 C254.972001,107.376 255.195999,107.416 255.388,107.48 L254.62,112.712 C254.267998,112.616 253.956001,112.552 253.684,112.52 C253.411999,112.488 253.148001,112.472 252.892,112.472 C251.579993,112.472 250.508004,112.711998 249.676,113.192 C248.843996,113.672002 248.172003,114.247997 247.66,114.92 C247.147997,115.592003 246.780001,116.279996 246.556,116.984 C246.331999,117.688004 246.188,118.247998 246.124,118.664 L243.964,131 L238.348,131 L241.564,112.904 C241.692001,112.295997 241.827999,111.512005 241.972,110.552 C242.116001,109.591995 242.22,108.728004 242.284,107.96 L247.564,107.96 C247.564,108.120001 247.548,108.359998 247.516,108.68 C247.484,109.000002 247.444,109.351998 247.396,109.736 C247.348,110.120002 247.3,110.495998 247.252,110.864 C247.204,111.232002 247.164,111.543999 247.132,111.8 L247.228,111.8 Z" id="path-1"></path>
        <path d="M177.524,63.224 C177.556,62.9999989 177.58,62.792001 177.596,62.6 C177.612,62.407999 177.62,62.216001 177.62,62.024 C177.62,60.7759938 177.180004,59.7200043 176.3,58.856 C175.419996,57.9919957 174.180008,57.56 172.58,57.56 C171.587995,57.56 170.692004,57.7359982 169.892,58.088 C169.091996,58.4400018 168.396003,58.8959972 167.804,59.456 C167.211997,60.0160028 166.724002,60.6319966 166.34,61.304 C165.955998,61.9760034 165.700001,62.615997 165.572,63.224 L177.524,63.224 Z" id="path-2"></path>
        <path d="M230.612,117.224 C230.644,116.999999 230.668,116.792001 230.684,116.6 C230.7,116.407999 230.708,116.216001 230.708,116.024 C230.708,114.775994 230.268004,113.720004 229.388,112.856 C228.507996,111.991996 227.268008,111.56 225.668,111.56 C224.675995,111.56 223.780004,111.735998 222.98,112.088 C222.179996,112.440002 221.484003,112.895997 220.892,113.456 C220.299997,114.016003 219.812002,114.631997 219.428,115.304 C219.043998,115.976003 218.788001,116.615997 218.66,117.224 L230.612,117.224 Z" id="path-3"></path>
        <path d="M181.444,117.224 C181.476,116.999999 181.5,116.792001 181.516,116.6 C181.532,116.407999 181.54,116.216001 181.54,116.024 C181.54,114.775994 181.100004,113.720004 180.22,112.856 C179.339996,111.991996 178.100008,111.56 176.5,111.56 C175.507995,111.56 174.612004,111.735998 173.812,112.088 C173.011996,112.440002 172.316003,112.895997 171.724,113.456 C171.131997,114.016003 170.644002,114.631997 170.26,115.304 C169.875998,115.976003 169.620001,116.615997 169.492,117.224 L181.444,117.224 Z" id="path-4"></path>
        <path d="M120.404,117.224 C120.436,116.999999 120.46,116.792001 120.476,116.6 C120.492,116.407999 120.5,116.216001 120.5,116.024 C120.5,114.775994 120.060004,113.720004 119.18,112.856 C118.299996,111.991996 117.060008,111.56 115.46,111.56 C114.467995,111.56 113.572004,111.735998 112.772,112.088 C111.971996,112.440002 111.276003,112.895997 110.684,113.456 C110.091997,114.016003 109.604002,114.631997 109.22,115.304 C108.835998,115.976003 108.580001,116.615997 108.452,117.224 L120.404,117.224 Z" id="path-5"></path>
        <path d="M69.172,120.44 C68.0839946,120.44 66.9560058,120.48 65.788,120.56 C64.6199942,120.64 63.5480049,120.823999 62.572,121.112 C61.5959951,121.400001 60.7960031,121.807997 60.172,122.336 C59.5479969,122.864003 59.236,123.575996 59.236,124.472 C59.236,125.016003 59.339999,125.471998 59.548,125.84 C59.756001,126.208002 60.0359982,126.503999 60.388,126.728 C60.7400018,126.952001 61.1399978,127.112 61.588,127.208 C62.0360022,127.304 62.4999976,127.352 62.98,127.352 C63.8440043,127.352 64.6519962,127.208001 65.404,126.92 C66.1560038,126.631999 66.8119972,126.240002 67.372,125.744 C67.9320028,125.247998 68.3959982,124.672003 68.764,124.016 C69.1320018,123.359997 69.3959992,122.648004 69.556,121.88 L69.844,120.44 L69.172,120.44 Z" id="path-6"></path>
        <path d="M128.356,63.224 C128.388,62.9999989 128.412,62.792001 128.428,62.6 C128.444,62.407999 128.452,62.216001 128.452,62.024 C128.452,60.7759938 128.012004,59.7200043 127.132,58.856 C126.251996,57.9919957 125.012008,57.56 123.412,57.56 C122.419995,57.56 121.524004,57.7359982 120.724,58.088 C119.923996,58.4400018 119.228003,58.8959972 118.636,59.456 C118.043997,60.0160028 117.556002,60.6319966 117.172,61.304 C116.787998,61.9760034 116.532001,62.615997 116.404,63.224 L128.356,63.224 Z" id="path-7"></path>
    </defs>
    <g id="Page-1" stroke="none" stroke-width="1" fill="none" fill-rule="evenodd">
        <g id="screen-1" transform="translate(-23.000000, -31.000000)" fill="#FFFFFF">
            <g id="header" transform="translate(23.000000, 31.000000)">
                <use id="Combined-Shape" xlink:href="#path-1"></use>
                <use id="Never-Have-I-ever" xlink:href="#path-2"></use>
                <use id="Never-Have-I-ever" xlink:href="#path-3"></use>
                <use id="Never-Have-I-ever" xlink:href="#path-4"></use>
                <use id="Never-Have-I-ever" xlink:href="#path-5"></use>
                <use id="Never-Have-I-ever" xlink:href="#path-6"></use>
                <use id="Never-Have-I-ever" xlink:href="#path-7"></use>
            </g>
        </g>
    </g>
</svg>